# xmcd CD database file
#
# Track frame offsets:
#	150
#	17278
#	33459
#	51369
#	69760
#	90172
#	108148
#	128925
#	143898
#	163160
#	178894
#	202192
#	219609
#	239731
#
# Disc length: 3426 seconds
#
# Revision: 0
# Processed by: cddbd v1.5.2PL0 Copyright (c) Steve Scherf et al.
# Submitted via: CDex 1.99.1
#
DISCID=c60d600e
DTITLE=Clementine - The Paris Collection
DYEAR=2008
DGENRE=Jazz
TTITLE0=Polka Dots And Moonbeams
TTITLE1=Alone Again Naturally
TTITLE2=Fiel E Insistente
TTITLE3=Make Yourself Comfortable
TTITLE4=Sina
TTITLE5=Sabor A Mi
TTITLE6=In The Stars
TTITLE7=Spread Your Wings
TTITLE8=Don'cha Go Way Mad
TTITLE9=Sandalia Dela
TTITLE10=Couleur Cafe
TTITLE11=These Foolish Things
TTITLE12=Caminhos Cruzados
TTITLE13=The Paris Walk
EXTD=YEAR: 2008
EXTT0=
EXTT1=
EXTT2=
EXTT3=
EXTT4=
EXTT5=
EXTT6=
EXTT7=
EXTT8=
EXTT9=
EXTT10=
EXTT11=
EXTT12=
EXTT13=
PLAYORDER=
